# xmcd CD database file
#
# Track frame offsets:
#	150
#	12115
#	21925
#	38630
#	50185
#	63597
#	73520
#	86622
#	98340
#	110767
#	129320
#	153485
#	170210
#	184990
#	200090
#	216762
#	232210
#	246402
#	261352
#	272205
#
# Disc length: 3758 seconds
#
# Revision: 0
# Processed by: cddbd v1.4PL0 Copyright (c) Steve Scherf et al.
# Submitted via: CDex 1.40Release
#
DISCID=310eac14
DTITLE=Pure Prairie Leauge - The Masters
DYEAR=1998
DGENRE=Country
TTITLE0=Amie
TTITLE1=That'll Be the Day
TTITLE2=Aren't You Mine
TTITLE3=Kentucky Moonshine
TTITLE4=Kansa City Southern
TTITLE5=I'll Change Your Flat Tyre Merle
TTITLE6=Pickin' to Beat the Devil
TTITLE7=Jazz Man
TTITLE8=Tears
TTITLE9=Take it Before You Go
TTITLE10=harmony Song
TTITLE11=All the Lonesome Cowboys
TTITLE12=Two Lane Highway
TTITLE13=Dance
TTITLE14=All the Way
TTITLE15=San Antonio
TTITLE16=Out on the Street
TTITLE17=Country Song
TTITLE18=Just Can't Believe it
TTITLE19=Falling In and Out of Love
EXTD=YEAR: 1998 ID3G: 2
EXTT0=
EXTT1=
EXTT2=
EXTT3=
EXTT4=
EXTT5=
EXTT6=
EXTT7=
EXTT8=
EXTT9=
EXTT10=
EXTT11=
EXTT12=
EXTT13=
EXTT14=
EXTT15=
EXTT16=
EXTT17=
EXTT18=
EXTT19=
PLAYORDER=
